<?xml version="1.0" encoding="utf-8"?>
<!-- Generator: Adobe Illustrator 23.1.0, SVG Export Plug-In . SVG Version: 6.00 Build 0)  -->
<svg version="1.1" id="Capa_1" xmlns="http://www.w3.org/2000/svg" xmlns:xlink="http://www.w3.org/1999/xlink" x="0px" y="0px"
	 viewBox="0 0 512 512" enable-background="new 0 0 512 512" xml:space="preserve">
<path fill="#394D5C" d="M256,7.5C118.8,7.5,7.5,118.8,7.5,256S118.8,504.5,256,504.5S504.5,393.2,504.5,256S393.2,7.5,256,7.5z
	 M256,272.6c-9.1,0-16.6-7.4-16.6-16.6c0-9.1,7.4-16.6,16.6-16.6s16.6,7.4,16.6,16.6C272.6,265.1,265.1,272.6,256,272.6z"/>
<circle fill="#133441" cx="256" cy="256" r="162"/>
<path fill="#133441" d="M256,7.5c-3.4,0-6.7,0.1-10,0.2C378.6,13,484.5,122.1,484.5,256S378.6,499,246,504.3c3.3,0.1,6.6,0.2,10,0.2
	c137.2,0,248.5-111.3,248.5-248.5S393.2,7.5,256,7.5z"/>
<path d="M445.9,84.4c-2.8-3.1-7.5-3.3-10.6-0.5c-3.1,2.8-3.3,7.5-0.5,10.6C474.9,138.8,497,196.2,497,256
	c0,64.4-25.1,124.9-70.6,170.4S320.4,497,256,497s-124.9-25.1-170.4-70.6S15,320.4,15,256S40.1,131.1,85.6,85.6
	C131.1,40.1,191.6,15,256,15c58.2,0,114.3,21,158.1,59.1c3.1,2.7,7.9,2.4,10.6-0.7c2.7-3.1,2.4-7.9-0.7-10.6
	C377.4,22.3,317.8,0,256,0C187.6,0,123.3,26.6,75,75C26.6,123.3,0,187.6,0,256s26.6,132.7,75,181s112.6,75,181,75s132.7-26.6,181-75
	c48.4-48.4,75-112.6,75-181C512,192.4,488.5,131.5,445.9,84.4z"/>
<path d="M256,437.4c100,0,181.4-81.4,181.4-181.4C437.4,156,356,74.6,256,74.6C156,74.6,74.6,156,74.6,256
	C74.6,356,156,437.4,256,437.4z M256,94c89.3,0,162,72.7,162,162c0,89.3-72.7,162-162,162c-89.3,0-162-72.7-162-162
	C94,166.7,166.7,94,256,94z"/>
<circle fill="#C62828" cx="256" cy="256" r="138.4"/>
<path d="M308.4,451.5c-4,1.1-6.4,5.2-5.3,9.2c0.9,3.4,3.9,5.6,7.2,5.6c0.6,0,1.3-0.1,1.9-0.3c55.2-14.7,103.3-51.7,132-101.3
	c2.1-3.6,0.9-8.2-2.7-10.2c-3.6-2.1-8.2-0.9-10.2,2.7C404.5,403.4,359.7,437.8,308.4,451.5z"/>
<path d="M203.6,60.5c4-1.1,6.4-5.2,5.3-9.2c-1.1-4-5.2-6.4-9.2-5.3c-55.2,14.7-103.3,51.7-132,101.3c-2.1,3.6-0.8,8.2,2.7,10.2
	c1.2,0.7,2.5,1,3.7,1c2.6,0,5.1-1.3,6.5-3.7C107.5,108.6,152.3,74.2,203.6,60.5z"/>
<path d="M355.1,274c0-40-31.3-72.9-70.6-75.4l-4.7-19.3c-0.8-3.3-0.3-6.7,1.5-9.6c1.7-2.9,4.5-4.9,7.8-5.7
	c6.8-1.6,13.7,2.5,15.3,9.3c1.4,5.6,7,9.1,12.7,7.7c5.6-1.4,9.1-7,7.7-12.7c-4.4-18-22.6-29.1-40.6-24.7
	c-8.7,2.1-16.1,7.5-20.8,15.2c-4.7,7.7-6.1,16.7-4,25.4l4,16.2c-26.7,7.1-46.4,31.5-46.5,60.4c0,3.3,0.4,6.7,1.2,9.9
	c2.6,10.6,9.1,19.6,18.4,25.2c6.5,4,13.8,6,21.2,6c3.2,0,6.5-0.4,9.7-1.2c10.6-2.6,19.6-9.1,25.2-18.4c5.6-9.3,7.4-20.3,4.8-30.9
	l-7.6-31.2c25.2,4.8,44.4,27,44.4,53.6c0,9.7-2.6,19.3-7.5,27.6c0,0,0,0-0.1,0.1c-10.8,18.4-28.1,31.5-48.8,36.9
	c-20.6,5.4-42.2,2.4-60.6-8.4c-18.4-10.8-31.5-28.1-36.9-48.8c-5.4-20.6-2.4-42.2,8.4-60.6c10.6-18.1,27.7-31.2,48-36.7
	c5.6-1.5,8.9-7.3,7.4-12.9c-1.5-5.6-7.3-8.9-12.9-7.4c-25.6,7-47.1,23.4-60.6,46.3c-28.2,48-12.1,110,35.9,138.1
	c16,9.4,33.5,13.9,50.9,13.9c34.6,0,68.4-17.8,87.2-49.8C351.5,300.7,355.1,287.5,355.1,274L355.1,274z M237.9,261
	c0-19.1,12.9-35.2,30.5-40.1l8.7,35.6c1.2,5.1,0.4,10.5-2.3,15c-2.8,4.5-7.1,7.7-12.3,9c-5.2,1.2-10.5,0.4-15-2.3s-7.7-7.1-9-12.3
	c-0.4-1.6-0.6-3.2-0.6-4.8"/>
</svg>
