<?xml version="1.0" encoding="utf-8"?>
<!-- Generator: Adobe Illustrator 23.1.0, SVG Export Plug-In . SVG Version: 6.00 Build 0)  -->
<svg version="1.1" id="Layer_1" xmlns="http://www.w3.org/2000/svg" xmlns:xlink="http://www.w3.org/1999/xlink" x="0px" y="0px"
	 viewBox="0 0 30 30" style="enable-background:new 0 0 30 30;" xml:space="preserve">
<style type="text/css">
	.st0{fill:#DD001B;}
	.st1{fill:#FFFFFF;stroke:#FFFFFF;stroke-width:0.8;stroke-miterlimit:10;}
	.st2{fill:#FFFFFF;stroke:#FFFFFF;stroke-width:0.4;stroke-miterlimit:10;}
</style>
<path class="st0" d="M23,27H7c-2.2,0-4-1.8-4-4V7c0-2.2,1.8-4,4-4h16c2.2,0,4,1.8,4,4v16C27,25.2,25.2,27,23,27z"/>
<path class="st1" d="M4.6,15.8c0,1.3,0.5,2.5,1.4,3.4c0.9,1,2.1,1.5,3.4,1.5c0.1,0,0.2-0.1,0.2-0.2v-1.3c0-0.1-0.1-0.2-0.2-0.2
	c-0.9,0-1.6-0.4-2.2-1c-0.6-0.6-0.9-1.4-0.9-2.3c0-0.8,0.3-1.6,0.8-2.2s1.3-1,2.1-1.1l0.5,0c0.1,0,0.2-0.1,0.2-0.2l0.1-0.6
	c0.1-1.1,0.6-2,1.4-2.7C12.3,8.3,13.2,8,14.3,8c1.1,0,2,0.4,2.9,1.1c0.8,0.7,1.3,1.6,1.4,2.7l0.1,0.6c0,0.1,0.1,0.2,0.2,0.2h1.6
	c0.9,0,1.7,0.3,2.3,1c0.6,0.6,1,1.4,1,2.3c0,0.9-0.3,1.6-0.9,2.3s-1.3,1-2.2,1c-0.1,0-0.2,0.1-0.2,0.2v1.3c0,0.1,0.1,0.2,0.2,0.2
	c0.9,0,1.7-0.3,2.4-0.7c0.7-0.5,1.3-1,1.7-1.8s0.6-1.6,0.6-2.4c0-0.9-0.2-1.7-0.7-2.5c-0.4-0.8-1-1.4-1.8-1.8s-1.6-0.6-2.5-0.6h-0.3
	c-0.3-1.3-1-2.4-2.1-3.3s-2.3-1.3-3.7-1.3c-1.4,0-2.7,0.4-3.8,1.3c-1.1,0.9-1.8,2-2.1,3.4c-1.1,0.3-2,0.8-2.7,1.7S4.6,14.6,4.6,15.8
	z"/>
<path class="st2" d="M18.2,14.5l-6.5,1.9c-0.3,0.1-0.5,0.3-0.5,0.6v5.2c-0.2-0.1-0.4-0.1-0.6-0.1c-1.1,0-1.9,0.6-1.9,1.3
	c0,0.7,0.9,1.3,1.9,1.3s1.9-0.6,1.9-1.3v-4.7l5.2-1.5v3.7c-0.2-0.1-0.4-0.1-0.6-0.1c-1.1,0-1.9,0.6-1.9,1.3c0,0.7,0.9,1.3,1.9,1.3
	s1.9-0.6,1.9-1.3v-7c0-0.4-0.3-0.6-0.6-0.6C18.3,14.4,18.3,14.4,18.2,14.5z"/>
</svg>
